<svg width="512" height="512" viewBox="0 0 512 512" fill="none" xmlns="http://www.w3.org/2000/svg">
<path fill-rule="evenodd" clip-rule="evenodd" d="M256.001 0C239.243 0 224.457 5.58114 209.072 14.4958C194.337 23.0064 177.553 35.5324 156.898 50.9121L65.0635 119.351C38.5895 139.049 20.1575 152.736 10.0674 172.965C-0.0226618 193.168 -0.0226642 216.301 0.00231126 249.56V342.924C0.00231126 377.447 0.00231095 405.302 2.92444 427.197C5.9215 449.926 12.4151 469.068 27.4254 484.271C42.4607 499.474 61.3921 505.99 83.87 509.071C105.524 512 133.072 512 167.213 512H344.789C378.931 512 406.479 512 428.132 509.071C450.61 505.99 469.542 499.474 484.577 484.271C499.612 469.068 506.056 449.926 509.103 427.197C512 405.302 512 377.447 512 342.924V249.56C512 216.301 512.025 193.168 501.935 172.965C491.845 152.762 473.413 139.049 446.914 119.325L355.104 50.9121C334.449 35.5072 317.641 23.0064 302.905 14.4958C287.545 5.58114 272.76 0 256.001 0ZM178.227 82.0756C200.006 65.8625 215.066 54.675 227.679 47.3513C239.917 40.2802 248.159 37.881 256.001 37.881C263.868 37.881 272.11 40.3054 284.298 47.3513C296.936 54.675 312.021 65.8625 333.775 82.0756L421.189 147.231C452.633 170.641 462.923 178.899 468.493 190.037C474.062 201.174 474.537 214.457 474.537 253.929V341.535C474.537 377.775 474.487 403.054 471.964 422.146C469.492 440.683 464.971 450.481 458.078 457.477C451.16 464.472 441.469 469.018 423.112 471.518C404.256 474.068 379.255 474.119 343.415 474.119H168.587C132.747 474.119 107.722 474.068 88.8651 471.518C70.5331 469.018 60.8426 464.447 53.9244 457.477C47.0062 450.481 42.5106 440.683 40.038 422.121C37.5155 403.054 37.4656 377.775 37.4656 341.535V253.954C37.4656 214.457 37.9401 201.174 43.5096 190.062C49.0792 178.899 59.3691 170.616 90.8132 147.206L178.227 82.0756Z" fill="black"/>
<path d="M253.178 270.901C221.183 270.901 175.819 322.862 175.819 355.662C175.819 370.434 186.621 379.259 204.724 379.259C224.402 379.259 237.396 368.643 253.178 368.643C269.097 368.643 282.127 379.259 301.632 379.259C319.734 379.259 330.536 370.434 330.536 355.662C330.536 322.862 285.173 270.901 253.178 270.901ZM193.837 265.563C189.647 250.897 176.738 241.399 165.005 244.345C153.272 247.291 147.16 261.568 151.35 276.234C155.541 290.901 168.45 300.399 180.183 297.453C191.915 294.507 198.027 280.23 193.837 265.563ZM227.972 256.768C240.438 253.322 246.675 235.63 241.904 217.251C237.134 198.872 223.161 186.771 210.695 190.216C198.229 193.662 191.992 211.355 196.762 229.733C201.533 248.112 215.51 260.218 227.972 256.768ZM341.347 244.349C329.614 241.403 316.709 250.901 312.514 265.568C308.324 280.234 314.436 294.511 326.169 297.457C337.902 300.403 350.807 290.905 355.001 276.238C359.191 261.572 353.079 247.295 341.347 244.349ZM278.384 256.768C290.85 260.213 304.823 248.112 309.593 229.733C314.364 211.355 308.127 193.666 295.661 190.216C283.195 186.767 269.222 198.872 264.451 217.251C259.681 235.63 265.918 253.322 278.384 256.768Z" fill="black"/>
</svg>
