<svg width="56" height="56" viewBox="0 0 56 56" fill="none" xmlns="http://www.w3.org/2000/svg">
<path d="M32.6665 7V16.3333C32.6665 16.9522 32.9123 17.5457 33.3499 17.9832C33.7875 18.4208 34.381 18.6667 34.9998 18.6667H44.3332" stroke="black" stroke-width="5" stroke-linecap="round" stroke-linejoin="round"/>
<path d="M11.6665 18.6667V11.6667C11.6665 10.429 12.1582 9.242 13.0333 8.36683C13.9085 7.49167 15.0955 7 16.3332 7H32.6665L44.3332 18.6667V44.3333C44.3332 45.571 43.8415 46.758 42.9663 47.6332C42.0912 48.5083 40.9042 49 39.6665 49H27.9998" stroke="black" stroke-width="5" stroke-linecap="round" stroke-linejoin="round"/>
<path d="M7 32.666C7 34.5225 7.7375 36.303 9.05025 37.6158C10.363 38.9285 12.1435 39.666 14 39.666C15.8565 39.666 17.637 38.9285 18.9497 37.6158C20.2625 36.303 21 34.5225 21 32.666C21 30.8095 20.2625 29.029 18.9497 27.7163C17.637 26.4035 15.8565 25.666 14 25.666C12.1435 25.666 10.363 26.4035 9.05025 27.7163C7.7375 29.029 7 30.8095 7 32.666Z" stroke="black" stroke-width="5" stroke-linecap="round" stroke-linejoin="round"/>
<path d="M10.5 39.666L7 51.3327L14 47.8327L21 51.3327L17.5 39.666" stroke="black" stroke-width="5" stroke-linecap="round" stroke-linejoin="round"/>
</svg>
