<svg width="513" height="513" viewBox="0 0 513 513" fill="none" xmlns="http://www.w3.org/2000/svg">
<path d="M197.777 238.053C206.213 238.053 214.46 235.551 221.475 230.864C228.489 226.177 233.957 219.516 237.185 211.721C240.413 203.927 241.258 195.351 239.612 187.076C237.966 178.802 233.904 171.202 227.939 165.236C221.973 159.271 214.373 155.208 206.098 153.562C197.824 151.916 189.248 152.761 181.453 155.99C173.659 159.218 166.997 164.685 162.31 171.7C157.623 178.715 155.122 186.961 155.122 195.398C155.134 206.707 159.632 217.549 167.629 225.546C175.625 233.543 186.468 238.041 197.777 238.053ZM197.777 181.18C200.589 181.18 203.338 182.013 205.676 183.576C208.014 185.138 209.837 187.359 210.913 189.957C211.989 192.555 212.271 195.414 211.722 198.172C211.173 200.93 209.819 203.463 207.831 205.452C205.842 207.44 203.309 208.794 200.551 209.343C197.793 209.892 194.934 209.61 192.336 208.534C189.738 207.458 187.517 205.635 185.955 203.297C184.392 200.959 183.558 198.21 183.558 195.398C183.561 191.628 185.06 188.013 187.726 185.347C190.392 182.681 194.007 181.182 197.777 181.18ZM318.411 273.377C309.975 273.377 301.728 275.879 294.713 280.566C287.698 285.253 282.231 291.914 279.003 299.709C275.774 307.503 274.93 316.079 276.575 324.354C278.221 332.628 282.284 340.228 288.249 346.194C294.215 352.159 301.815 356.222 310.089 357.868C318.364 359.514 326.94 358.669 334.734 355.44C342.529 352.212 349.19 346.745 353.877 339.73C358.564 332.715 361.066 324.468 361.066 316.032C361.054 304.723 356.556 293.881 348.559 285.884C340.562 277.887 329.72 273.389 318.411 273.377ZM318.411 330.25C315.599 330.25 312.85 329.417 310.512 327.854C308.173 326.292 306.351 324.071 305.275 321.473C304.199 318.875 303.917 316.016 304.466 313.258C305.014 310.5 306.369 307.967 308.357 305.978C310.346 303.99 312.879 302.636 315.637 302.087C318.395 301.538 321.254 301.82 323.852 302.896C326.45 303.972 328.671 305.795 330.233 308.133C331.795 310.471 332.629 313.22 332.629 316.032C332.627 319.802 331.128 323.417 328.462 326.083C325.796 328.749 322.181 330.248 318.411 330.25ZM367.675 146.134C366.355 144.813 364.788 143.766 363.063 143.051C361.338 142.336 359.489 141.968 357.622 141.968C355.755 141.968 353.906 142.336 352.181 143.051C350.456 143.766 348.889 144.813 347.569 146.134L148.512 345.191C147.178 346.508 146.118 348.076 145.393 349.805C144.667 351.533 144.291 353.388 144.285 355.263C144.279 357.137 144.644 358.994 145.358 360.727C146.073 362.46 147.123 364.035 148.449 365.36C149.774 366.685 151.349 367.736 153.082 368.45C154.815 369.165 156.672 369.53 158.547 369.524C160.421 369.518 162.276 369.141 164.004 368.416C165.733 367.69 167.3 366.63 168.618 365.296L367.675 166.239C368.995 164.919 370.043 163.352 370.758 161.627C371.472 159.902 371.84 158.053 371.84 156.186C371.84 154.319 371.472 152.471 370.758 150.746C370.043 149.021 368.995 147.454 367.675 146.134Z" fill="black"/>
<circle cx="256.647" cy="256.647" r="238.5" stroke="black" stroke-width="35"/>
</svg>
